<?xml version="1.0" encoding="utf-8"?>
<!-- Generator: Adobe Illustrator 23.0.5, SVG Export Plug-In . SVG Version: 6.00 Build 0)  -->
<svg version="1.1" id="Layer_1" xmlns="http://www.w3.org/2000/svg" xmlns:xlink="http://www.w3.org/1999/xlink" x="0px" y="0px"
	 viewBox="0 0 536.5 123.1" style="enable-background:new 0 0 536.5 123.1;" xml:space="preserve">
<style type="text/css">
	.st0{fill:#4399EB;}
	.st1{fill:#FFFFFF;}
</style>
<circle id="XMLID_2_" class="st0" cx="61.5" cy="61.5" r="61.5"/>
<g id="XMLID_7_">
	<path id="XMLID_9_" d="M188,35.7v52.5h-8L151,52.7v35.5h-9.7V35.7h8l28.9,35.5V35.7H188z"/>
	<path id="XMLID_11_" d="M200.9,40c-1.2-1.1-1.7-2.4-1.7-4c0-1.6,0.6-2.9,1.7-4c1.1-1.1,2.6-1.6,4.3-1.6c1.7,0,3.1,0.5,4.3,1.5
		c1.1,1,1.7,2.3,1.7,3.9c0,1.6-0.6,3-1.7,4.2s-2.6,1.7-4.3,1.7C203.4,41.6,202,41,200.9,40z M200.4,48.2h9.4v40h-9.4V48.2z"/>
	<path id="XMLID_14_" d="M231.7,46.1v2.4h11V56H232v32.3h-9.4V56H216v-7.5h6.6v-2.5c0-4.3,1.2-7.7,3.8-10.2c2.5-2.5,6-3.7,10.6-3.7
		c3.6,0,6.4,0.7,8.5,2.2l-2.6,7c-1.6-1.1-3.3-1.6-5.2-1.6C233.7,39.6,231.7,41.8,231.7,46.1z"/>
	<path id="XMLID_16_" d="M272.3,86.1c-1.1,0.9-2.4,1.6-4,2c-1.6,0.4-3.2,0.7-5,0.7c-4.4,0-7.8-1.1-10.2-3.4
		c-2.4-2.3-3.6-5.6-3.6-10.1V56h-6.6v-7.5h6.6v-9.1h9.4v9.1h10.7V56h-10.7v19c0,2,0.5,3.4,1.4,4.5c0.9,1,2.3,1.5,4.1,1.5
		c2.1,0,3.8-0.5,5.2-1.6L272.3,86.1z"/>
	<path id="XMLID_18_" d="M316.1,48.2l-18.8,43.3c-1.8,4.4-3.9,7.4-6.4,9.2c-2.5,1.8-5.5,2.7-9.1,2.7c-2,0-4-0.3-5.9-1
		c-2-0.7-3.5-1.6-4.8-2.7l3.8-6.9c0.9,0.8,2,1.5,3.2,2c1.2,0.5,2.5,0.8,3.7,0.8c1.7,0,3-0.4,4.1-1.3c1.1-0.9,2.1-2.3,3-4.3l0.7-1.6
		L272,48.2h9.8l12.6,29.6l12.7-29.6H316.1z"/>
	<path id="XMLID_20_" d="M327.8,40.5h-18.5v-4.8h42.5v4.8h-18.5v47.7h-5.5V40.5z"/>
	<path id="XMLID_22_" d="M366.4,50.5c2.5-1.4,5.5-2,9.2-2v5.2l-1.3-0.1c-4.2,0-7.4,1.3-9.8,3.8c-2.4,2.6-3.5,6.1-3.5,10.7v20.1h-5.3
		V48.8h5.1v7.7C362,53.9,363.9,51.9,366.4,50.5z"/>
	<path id="XMLID_24_" d="M408,52.3c2.7,2.6,4.1,6.4,4.1,11.4v24.5H407v-6.1c-1.2,2.1-3,3.7-5.3,4.8c-2.3,1.2-5.1,1.7-8.3,1.7
		c-4.4,0-7.9-1-10.5-3.1c-2.6-2.1-3.9-4.9-3.9-8.3c0-3.3,1.2-6,3.6-8.1c2.4-2,6.3-3.1,11.6-3.1h12.5v-2.4c0-3.4-1-6-2.8-7.8
		c-1.9-1.8-4.7-2.7-8.3-2.7c-2.5,0-4.9,0.4-7.2,1.2c-2.3,0.8-4.3,2-5.9,3.4l-2.4-4c2-1.7,4.4-3,7.2-3.9c2.8-0.9,5.7-1.4,8.8-1.4
		C401.3,48.5,405.2,49.8,408,52.3z M402,82.3c2.1-1.4,3.8-3.4,4.8-6v-6.4h-12.4c-6.8,0-10.1,2.4-10.1,7c0,2.3,0.9,4.1,2.6,5.4
		c1.8,1.3,4.2,2,7.3,2C397.3,84.4,399.8,83.7,402,82.3z"/>
	<path id="XMLID_27_" d="M460,32.6v55.6h-5.1v-7.8c-1.6,2.7-3.7,4.7-6.3,6.1c-2.6,1.4-5.6,2.1-8.9,2.1c-3.7,0-7-0.8-10-2.5
		c-3-1.7-5.4-4.1-7-7.1c-1.7-3-2.5-6.5-2.5-10.4s0.8-7.4,2.5-10.4c1.7-3,4-5.4,7-7.1c3-1.7,6.3-2.5,10-2.5c3.2,0,6.1,0.7,8.7,2
		c2.6,1.3,4.7,3.3,6.3,5.8V32.6H460z M447.6,82c2.2-1.3,4-3.1,5.3-5.4c1.3-2.3,1.9-5,1.9-8s-0.6-5.7-1.9-8c-1.3-2.3-3-4.2-5.3-5.4
		c-2.2-1.3-4.7-1.9-7.5-1.9c-2.8,0-5.3,0.6-7.5,1.9c-2.2,1.3-4,3.1-5.3,5.4c-1.3,2.4-1.9,5-1.9,8s0.6,5.7,1.9,8
		c1.3,2.4,3,4.2,5.3,5.4c2.2,1.3,4.7,1.9,7.5,1.9C442.9,83.9,445.3,83.2,447.6,82z"/>
	<path id="XMLID_30_" d="M508.4,70.2h-33c0.3,4.1,1.9,7.4,4.7,9.9c2.8,2.5,6.5,3.8,10.8,3.8c2.4,0,4.7-0.4,6.8-1.3
		c2-0.9,3.8-2.2,5.3-3.9l3,3.4c-1.8,2.1-3.9,3.7-6.6,4.8c-2.6,1.1-5.5,1.6-8.7,1.6c-4.1,0-7.6-0.9-10.8-2.6
		c-3.1-1.7-5.6-4.1-7.3-7.2c-1.8-3-2.6-6.5-2.6-10.4c0-3.8,0.8-7.3,2.5-10.4c1.7-3,4-5.4,6.9-7.1c2.9-1.7,6.2-2.5,9.9-2.5
		c3.6,0,6.9,0.9,9.8,2.5c2.9,1.7,5.2,4.1,6.8,7.1c1.7,3,2.5,6.5,2.5,10.4L508.4,70.2z M479.8,56.7c-2.6,2.4-4,5.6-4.4,9.5h28
		c-0.4-3.9-1.8-7.1-4.4-9.5c-2.6-2.4-5.8-3.6-9.6-3.6C485.6,53.1,482.4,54.3,479.8,56.7z"/>
	<path id="XMLID_33_" d="M527.3,50.5c2.5-1.4,5.5-2,9.2-2v5.2l-1.3-0.1c-4.2,0-7.4,1.3-9.8,3.8c-2.4,2.6-3.5,6.1-3.5,10.7v20.1h-5.3
		V48.8h5.1v7.7C523,53.9,524.8,51.9,527.3,50.5z"/>
</g>
<g>
	<path d="M309.9,96v3.2h5.1v1.7h-5.1v4h-2V94.4h7.7V96H309.9z"/>
	<path d="M317.1,95.2c-0.2-0.2-0.3-0.5-0.3-0.8s0.1-0.6,0.3-0.8c0.2-0.2,0.5-0.3,0.9-0.3s0.6,0.1,0.9,0.3c0.2,0.2,0.3,0.5,0.3,0.8
		c0,0.3-0.1,0.6-0.3,0.8c-0.2,0.2-0.5,0.3-0.9,0.3C317.6,95.6,317.3,95.4,317.1,95.2z M317,96.9h1.9v8H317V96.9z"/>
	<path d="M328.2,97.7c0.6,0.6,0.9,1.5,0.9,2.6v4.6h-1.9v-4.3c0-0.7-0.2-1.2-0.5-1.6c-0.3-0.4-0.8-0.5-1.4-0.5
		c-0.7,0-1.2,0.2-1.6,0.6c-0.4,0.4-0.6,1-0.6,1.8v4h-1.9v-8h1.8v1c0.3-0.4,0.7-0.7,1.2-0.8c0.5-0.2,1-0.3,1.6-0.3
		C326.7,96.8,327.5,97.1,328.2,97.7z"/>
	<path d="M339.2,93.8v11.1h-1.8v-1c-0.3,0.4-0.7,0.7-1.1,0.9c-0.5,0.2-1,0.3-1.5,0.3c-0.8,0-1.5-0.2-2.1-0.5
		c-0.6-0.3-1.1-0.8-1.4-1.4c-0.3-0.6-0.5-1.3-0.5-2.2c0-0.8,0.2-1.5,0.5-2.1c0.4-0.6,0.8-1.1,1.4-1.4c0.6-0.3,1.3-0.5,2.1-0.5
		c0.5,0,1,0.1,1.5,0.3c0.4,0.2,0.8,0.5,1.1,0.8v-4.1H339.2z M336.2,103.1c0.4-0.2,0.6-0.5,0.9-0.9s0.3-0.8,0.3-1.3s-0.1-0.9-0.3-1.3
		s-0.5-0.7-0.9-0.9c-0.4-0.2-0.8-0.3-1.2-0.3s-0.9,0.1-1.2,0.3s-0.6,0.5-0.9,0.9s-0.3,0.8-0.3,1.3s0.1,0.9,0.3,1.3s0.5,0.7,0.9,0.9
		s0.8,0.3,1.2,0.3S335.9,103.3,336.2,103.1z"/>
	<path d="M353,96.9l-3.8,8.7c-0.4,0.9-0.8,1.5-1.3,1.8c-0.5,0.4-1.1,0.5-1.8,0.5c-0.4,0-0.8-0.1-1.2-0.2c-0.4-0.1-0.7-0.3-1-0.5
		l0.8-1.4c0.2,0.2,0.4,0.3,0.6,0.4c0.2,0.1,0.5,0.2,0.7,0.2c0.3,0,0.6-0.1,0.8-0.3s0.4-0.5,0.6-0.9l0.1-0.3l-3.5-8h2l2.5,5.9
		l2.5-5.9H353z"/>
	<path d="M355.2,104.5c-0.6-0.3-1.2-0.8-1.5-1.5s-0.5-1.3-0.5-2.1s0.2-1.5,0.5-2.1s0.9-1.1,1.5-1.5c0.7-0.3,1.4-0.5,2.2-0.5
		c0.8,0,1.6,0.2,2.2,0.5c0.6,0.4,1.2,0.8,1.5,1.5s0.5,1.3,0.5,2.1s-0.2,1.5-0.5,2.1s-0.9,1.1-1.5,1.5c-0.7,0.3-1.4,0.5-2.2,0.5
		C356.6,105,355.9,104.8,355.2,104.5z M359.1,102.7c0.5-0.5,0.7-1.1,0.7-1.8s-0.2-1.4-0.7-1.8s-1-0.7-1.7-0.7
		c-0.7,0-1.3,0.2-1.7,0.7c-0.4,0.5-0.7,1.1-0.7,1.8s0.2,1.4,0.7,1.8c0.4,0.5,1,0.7,1.7,0.7C358.1,103.4,358.7,103.2,359.1,102.7z"/>
	<path d="M371.1,96.9v8h-1.8v-1c-0.3,0.4-0.7,0.6-1.1,0.8s-0.9,0.3-1.5,0.3c-1.1,0-1.9-0.3-2.5-0.9c-0.6-0.6-0.9-1.5-0.9-2.6v-4.6
		h1.9v4.3c0,0.7,0.2,1.3,0.5,1.6c0.3,0.4,0.8,0.5,1.4,0.5c0.7,0,1.2-0.2,1.6-0.6c0.4-0.4,0.6-1,0.6-1.8v-4H371.1z"/>
	<path d="M378,96.8v1.8c-0.2,0-0.3,0-0.4,0c-0.7,0-1.3,0.2-1.7,0.6c-0.4,0.4-0.6,1-0.6,1.8v3.9h-1.9v-8h1.8V98
		C375.7,97.2,376.7,96.8,378,96.8z"/>
	<path d="M380.1,104.7c-0.6-0.2-1.1-0.4-1.5-0.6l0.7-1.4c0.4,0.2,0.8,0.4,1.3,0.6c0.5,0.1,1,0.2,1.5,0.2c1.1,0,1.7-0.3,1.7-0.9
		c0-0.3-0.1-0.5-0.4-0.6c-0.3-0.1-0.7-0.2-1.4-0.3c-0.7-0.1-1.2-0.2-1.6-0.3s-0.8-0.4-1.1-0.7c-0.3-0.3-0.5-0.8-0.5-1.4
		c0-0.8,0.3-1.4,1-1.8c0.6-0.5,1.5-0.7,2.6-0.7c0.5,0,1.1,0.1,1.7,0.2c0.5,0.1,1,0.3,1.3,0.5l-0.7,1.4c-0.7-0.4-1.4-0.6-2.3-0.6
		c-0.6,0-1,0.1-1.3,0.2s-0.4,0.4-0.4,0.7c0,0.3,0.2,0.5,0.5,0.6c0.3,0.1,0.8,0.2,1.4,0.4c0.6,0.1,1.2,0.2,1.6,0.3s0.8,0.3,1.1,0.7
		c0.3,0.3,0.4,0.8,0.4,1.3c0,0.8-0.3,1.4-1,1.8c-0.7,0.5-1.5,0.7-2.7,0.7C381.3,105,380.7,104.9,380.1,104.7z"/>
	<path d="M394.6,101.5h-6.3c0.1,0.6,0.4,1.1,0.9,1.4c0.5,0.3,1,0.5,1.7,0.5c0.9,0,1.6-0.3,2.2-0.9l1,1.2c-0.4,0.4-0.8,0.8-1.4,1
		c-0.6,0.2-1.2,0.3-1.9,0.3c-0.9,0-1.7-0.2-2.3-0.5s-1.2-0.8-1.6-1.5s-0.5-1.3-0.5-2.1c0-0.8,0.2-1.5,0.5-2.1
		c0.4-0.6,0.8-1.1,1.5-1.5c0.6-0.3,1.3-0.5,2.1-0.5c0.8,0,1.5,0.2,2.1,0.5c0.6,0.3,1.1,0.8,1.4,1.5c0.3,0.6,0.5,1.3,0.5,2.2
		C394.6,101.1,394.6,101.2,394.6,101.5z M389,98.8c-0.4,0.4-0.7,0.8-0.8,1.4h4.5c-0.1-0.6-0.3-1-0.7-1.4c-0.4-0.4-0.9-0.5-1.5-0.5
		C390,98.3,389.5,98.5,389,98.8z"/>
	<path d="M396.3,93.8h1.9v11.1h-1.9V93.8z"/>
	<path d="M402.5,96.5v0.5h2.2v1.5h-2.1v6.5h-1.9v-6.5h-1.3v-1.5h1.3v-0.5c0-0.9,0.2-1.5,0.8-2c0.5-0.5,1.2-0.7,2.1-0.7
		c0.7,0,1.3,0.1,1.7,0.4l-0.5,1.4c-0.3-0.2-0.7-0.3-1-0.3C402.9,95.2,402.5,95.6,402.5,96.5z"/>
	<path d="M417.9,105l-1.3-1.3c-1,0.8-2.2,1.3-3.5,1.3c-0.7,0-1.4-0.1-2-0.4s-1-0.6-1.4-1c-0.3-0.4-0.5-0.9-0.5-1.4
		c0-0.6,0.2-1.2,0.6-1.7c0.4-0.5,1-1,1.9-1.5c-0.4-0.4-0.7-0.8-0.9-1.2c-0.2-0.4-0.3-0.7-0.3-1.1c0-0.7,0.3-1.3,0.8-1.8
		c0.6-0.5,1.3-0.7,2.2-0.7c0.8,0,1.5,0.2,2,0.6s0.8,1,0.8,1.7c0,0.5-0.2,1-0.5,1.4s-0.9,0.8-1.6,1.3l2.3,2.2
		c0.3-0.5,0.4-1.1,0.6-1.8l1.5,0.5c-0.2,0.9-0.5,1.7-0.9,2.4l1.3,1.3L417.9,105z M415.5,102.7l-2.8-2.7c-0.6,0.3-1,0.6-1.3,1
		c-0.2,0.3-0.4,0.6-0.4,1c0,0.4,0.2,0.8,0.6,1.1c0.4,0.3,0.9,0.4,1.5,0.4C414,103.5,414.8,103.2,415.5,102.7z M412.5,95.9
		c-0.2,0.2-0.4,0.5-0.4,0.8c0,0.2,0.1,0.5,0.2,0.7s0.4,0.5,0.8,0.9c0.6-0.3,1-0.6,1.3-0.9c0.2-0.2,0.4-0.5,0.4-0.8
		c0-0.3-0.1-0.6-0.3-0.7c-0.2-0.2-0.5-0.3-0.9-0.3C413.1,95.6,412.8,95.7,412.5,95.9z"/>
	<path d="M426.6,96h-3.5v-1.7h8.9V96h-3.5v8.8h-2V96z"/>
	<path d="M437.6,96.8v1.8c-0.2,0-0.3,0-0.4,0c-0.7,0-1.3,0.2-1.7,0.6c-0.4,0.4-0.6,1-0.6,1.8v3.9h-1.9v-8h1.8V98
		C435.3,97.2,436.2,96.8,437.6,96.8z"/>
	<path d="M444.7,97.6c0.6,0.6,0.9,1.4,0.9,2.6v4.7h-1.8v-1c-0.2,0.3-0.6,0.6-1,0.8c-0.4,0.2-0.9,0.3-1.5,0.3c-0.6,0-1.1-0.1-1.6-0.3
		c-0.5-0.2-0.8-0.5-1-0.9s-0.4-0.8-0.4-1.2c0-0.7,0.3-1.3,0.8-1.7c0.5-0.4,1.4-0.7,2.5-0.7h2.1v-0.1c0-0.6-0.2-1-0.5-1.3
		s-0.8-0.5-1.5-0.5c-0.5,0-0.9,0.1-1.3,0.2c-0.4,0.1-0.8,0.3-1.1,0.6l-0.7-1.4c0.4-0.3,0.9-0.6,1.5-0.7s1.2-0.3,1.9-0.3
		C443.2,96.8,444.1,97.1,444.7,97.6z M443,103.3c0.4-0.2,0.6-0.5,0.8-0.9v-0.9h-1.9c-1.1,0-1.6,0.4-1.6,1.1c0,0.3,0.1,0.6,0.4,0.8
		c0.3,0.2,0.6,0.3,1.1,0.3C442.3,103.6,442.7,103.5,443,103.3z"/>
	<path d="M455.8,93.8v11.1H454v-1c-0.3,0.4-0.7,0.7-1.1,0.9c-0.5,0.2-1,0.3-1.5,0.3c-0.8,0-1.5-0.2-2.1-0.5
		c-0.6-0.3-1.1-0.8-1.4-1.4c-0.3-0.6-0.5-1.3-0.5-2.2c0-0.8,0.2-1.5,0.5-2.1c0.4-0.6,0.8-1.1,1.4-1.4c0.6-0.3,1.3-0.5,2.1-0.5
		c0.5,0,1,0.1,1.5,0.3c0.4,0.2,0.8,0.5,1.1,0.8v-4.1H455.8z M452.8,103.1c0.4-0.2,0.6-0.5,0.9-0.9s0.3-0.8,0.3-1.3s-0.1-0.9-0.3-1.3
		s-0.5-0.7-0.9-0.9c-0.4-0.2-0.8-0.3-1.2-0.3s-0.9,0.1-1.2,0.3s-0.6,0.5-0.9,0.9s-0.3,0.8-0.3,1.3s0.1,0.9,0.3,1.3s0.5,0.7,0.9,0.9
		s0.8,0.3,1.2,0.3S452.5,103.3,452.8,103.1z"/>
	<path d="M465.7,101.5h-6.3c0.1,0.6,0.4,1.1,0.9,1.4c0.5,0.3,1,0.5,1.7,0.5c0.9,0,1.6-0.3,2.2-0.9l1,1.2c-0.4,0.4-0.8,0.8-1.4,1
		c-0.6,0.2-1.2,0.3-1.9,0.3c-0.9,0-1.7-0.2-2.3-0.5s-1.2-0.8-1.6-1.5s-0.5-1.3-0.5-2.1c0-0.8,0.2-1.5,0.5-2.1
		c0.4-0.6,0.8-1.1,1.5-1.5c0.6-0.3,1.3-0.5,2.1-0.5c0.8,0,1.5,0.2,2.1,0.5c0.6,0.3,1.1,0.8,1.4,1.5c0.3,0.6,0.5,1.3,0.5,2.2
		C465.7,101.1,465.7,101.2,465.7,101.5z M460.1,98.8c-0.4,0.4-0.7,0.8-0.8,1.4h4.5c-0.1-0.6-0.3-1-0.7-1.4c-0.4-0.4-0.9-0.5-1.5-0.5
		C461,98.3,460.5,98.5,460.1,98.8z"/>
	<path d="M476.1,104.4c-0.2,0.2-0.5,0.3-0.8,0.4c-0.3,0.1-0.6,0.1-1,0.1c-0.9,0-1.6-0.2-2-0.7c-0.5-0.5-0.7-1.1-0.7-2v-3.9h-1.3
		v-1.5h1.3v-1.8h1.9v1.8h2.1v1.5h-2.1v3.8c0,0.4,0.1,0.7,0.3,0.9c0.2,0.2,0.5,0.3,0.8,0.3c0.4,0,0.8-0.1,1-0.3L476.1,104.4z"/>
	<path d="M484.5,97.7c0.6,0.6,0.9,1.5,0.9,2.6v4.6h-1.9v-4.3c0-0.7-0.2-1.2-0.5-1.6c-0.3-0.4-0.8-0.5-1.4-0.5
		c-0.7,0-1.2,0.2-1.6,0.6c-0.4,0.4-0.6,1-0.6,1.8v4h-1.9V93.8h1.9v4c0.3-0.3,0.7-0.6,1.1-0.8c0.5-0.2,1-0.3,1.5-0.3
		C483.1,96.8,483.9,97.1,484.5,97.7z"/>
	<path d="M493.4,97.6c0.6,0.6,0.9,1.4,0.9,2.6v4.7h-1.8v-1c-0.2,0.3-0.6,0.6-1,0.8c-0.4,0.2-0.9,0.3-1.5,0.3c-0.6,0-1.1-0.1-1.6-0.3
		c-0.5-0.2-0.8-0.5-1-0.9s-0.4-0.8-0.4-1.2c0-0.7,0.3-1.3,0.8-1.7c0.5-0.4,1.4-0.7,2.5-0.7h2.1v-0.1c0-0.6-0.2-1-0.5-1.3
		s-0.8-0.5-1.5-0.5c-0.5,0-0.9,0.1-1.3,0.2c-0.4,0.1-0.8,0.3-1.1,0.6l-0.7-1.4c0.4-0.3,0.9-0.6,1.5-0.7s1.2-0.3,1.9-0.3
		C491.9,96.8,492.8,97.1,493.4,97.6z M491.7,103.3c0.4-0.2,0.6-0.5,0.8-0.9v-0.9h-1.9c-1.1,0-1.6,0.4-1.6,1.1c0,0.3,0.1,0.6,0.4,0.8
		c0.3,0.2,0.6,0.3,1.1,0.3C490.9,103.6,491.4,103.5,491.7,103.3z"/>
	<path d="M501.4,104.4c-0.2,0.2-0.5,0.3-0.8,0.4c-0.3,0.1-0.6,0.1-1,0.1c-0.9,0-1.6-0.2-2-0.7c-0.5-0.5-0.7-1.1-0.7-2v-3.9h-1.3
		v-1.5h1.3v-1.8h1.9v1.8h2.1v1.5h-2.1v3.8c0,0.4,0.1,0.7,0.3,0.9c0.2,0.2,0.5,0.3,0.8,0.3c0.4,0,0.8-0.1,1-0.3L501.4,104.4z"/>
	<path d="M519.3,96.9l-3,8h-1.8l-2.1-5.5l-2.1,5.5h-1.8l-2.9-8h1.8l2.1,5.9l2.2-5.9h1.6l2.2,5.9l2.2-5.9H519.3z"/>
	<path d="M526,97.6c0.6,0.6,0.9,1.4,0.9,2.6v4.7h-1.8v-1c-0.2,0.3-0.6,0.6-1,0.8c-0.4,0.2-0.9,0.3-1.5,0.3c-0.6,0-1.1-0.1-1.6-0.3
		c-0.5-0.2-0.8-0.5-1-0.9s-0.4-0.8-0.4-1.2c0-0.7,0.3-1.3,0.8-1.7c0.5-0.4,1.4-0.7,2.5-0.7h2.1v-0.1c0-0.6-0.2-1-0.5-1.3
		s-0.8-0.5-1.5-0.5c-0.5,0-0.9,0.1-1.3,0.2c-0.4,0.1-0.8,0.3-1.1,0.6l-0.7-1.4c0.4-0.3,0.9-0.6,1.5-0.7s1.2-0.3,1.9-0.3
		C524.4,96.8,525.3,97.1,526,97.6z M524.3,103.3c0.4-0.2,0.6-0.5,0.8-0.9v-0.9h-1.9c-1.1,0-1.6,0.4-1.6,1.1c0,0.3,0.1,0.6,0.4,0.8
		c0.3,0.2,0.6,0.3,1.1,0.3C523.5,103.6,523.9,103.5,524.3,103.3z"/>
	<path d="M536.5,96.9l-3.8,8.7c-0.4,0.9-0.8,1.5-1.3,1.8c-0.5,0.4-1.1,0.5-1.8,0.5c-0.4,0-0.8-0.1-1.2-0.2c-0.4-0.1-0.7-0.3-1-0.5
		l0.8-1.4c0.2,0.2,0.4,0.3,0.6,0.4c0.2,0.1,0.5,0.2,0.7,0.2c0.3,0,0.6-0.1,0.8-0.3s0.4-0.5,0.6-0.9l0.1-0.3l-3.5-8h2l2.5,5.9
		l2.5-5.9H536.5z"/>
</g>
<g id="XMLID_6_">
	<ellipse transform="matrix(0.2298 -0.9732 0.9732 0.2298 -12.4944 107.3094)" class="st0" cx="61.5" cy="61.5" rx="51" ry="51"/>
	<path class="st1" d="M61.5,14c26.2,0,47.5,21.3,47.5,47.5s-21.3,47.5-47.5,47.5S14,87.8,14,61.5S35.3,14,61.5,14 M61.5,7
		C31.4,7,7,31.4,7,61.5c0,30.1,24.4,54.5,54.5,54.5s54.5-24.4,54.5-54.5C116.1,31.4,91.7,7,61.5,7L61.5,7z"/>
</g>
<polygon id="XMLID_37_" class="st1" points="78.6,21.8 67.3,36.5 73.1,36.5 73.1,67.6 50.1,36 39.1,36 39.1,86.1 33.3,86.1 
	44.6,100.9 55.9,86.1 50.1,86.1 50.1,54.4 73.1,86.7 84.1,86.7 84.1,36.5 89.9,36.5 "/>
</svg>
